<?xml version="1.0" standalone="no"?>
<!DOCTYPE svg PUBLIC "-//W3C//DTD SVG 20010904//EN"
 "http://www.w3.org/TR/2001/REC-SVG-20010904/DTD/svg10.dtd">
<svg version="1.0" xmlns="http://www.w3.org/2000/svg"
 width="500.000000pt" height="500.000000pt" viewBox="0 0 500.000000 500.000000"
 preserveAspectRatio="xMidYMid meet">
<metadata>
Created by potrace 1.14, written by Peter Selinger 2001-2017
</metadata>
<g transform="translate(0.000000,500.000000) scale(0.100000,-0.100000)"
fill="#000000" stroke="none">
<path d="M2 3818 c1 -651 3 -1163 5 -1138 37 504 229 990 549 1390 84 105 274
296 374 375 388 309 852 497 1344 544 44 5 -449 9 -1096 10 l-1178 1 2 -1182z"/>
<path d="M2685 4993 c299 -36 476 -74 670 -145 581 -213 1062 -631 1353 -1178
158 -295 260 -652 285 -990 2 -25 4 487 5 1138 l2 1182 -1172 -1 c-645 -1
-1159 -4 -1143 -6z"/>
<path d="M2235 4836 c-964 -108 -1773 -813 -2011 -1752 -56 -221 -69 -331 -69
-584 0 -254 14 -367 70 -586 79 -307 205 -569 400 -829 376 -499 909 -814
1545 -912 161 -25 510 -24 670 1 626 98 1163 417 1535 911 295 393 452 834
472 1325 30 771 -317 1503 -932 1964 -138 104 -212 149 -361 225 -241 121
-435 183 -711 226 -135 22 -458 27 -608 11z m295 -141 c22 -27 -5 -45 -69 -45
-84 0 -101 -7 -101 -41 l0 -28 78 -3 c75 -3 77 -4 77 -28 0 -24 -3 -25 -72
-28 l-73 -3 0 -34 0 -35 85 0 c69 0 87 -3 92 -16 11 -30 -19 -42 -120 -47 -72
-3 -102 -1 -111 9 -13 13 -30 262 -19 289 6 17 34 22 139 24 62 1 85 -3 94
-14z m156 7 c6 -4 37 -52 70 -107 l59 -100 7 40 c4 22 11 63 15 90 7 44 11 50
34 53 16 2 29 -3 32 -11 8 -21 -28 -286 -40 -298 -25 -25 -50 -1 -113 105
l-65 110 -7 -47 c-5 -26 -11 -68 -16 -94 -6 -42 -10 -48 -33 -51 -16 -2 -29 3
-32 11 -7 18 21 255 33 285 9 22 35 29 56 14z m-628 -64 c2 -9 -13 -42 -33
-74 -35 -54 -35 -57 -17 -70 83 -58 123 -97 120 -117 -5 -38 -39 -31 -108 22
-62 48 -64 49 -78 30 -10 -14 -12 -34 -7 -69 6 -42 4 -51 -10 -57 -33 -12 -49
13 -82 133 -39 139 -39 169 -3 169 21 0 28 -8 40 -45 9 -25 18 -52 21 -60 4
-11 11 -5 24 20 10 19 33 59 52 88 26 42 38 53 56 50 12 -2 23 -11 25 -20z
m1100 -28 c77 -23 95 -41 70 -67 -14 -13 -23 -12 -88 7 -78 23 -93 19 -88 -24
2 -15 19 -25 66 -38 54 -16 62 -22 62 -43 0 -32 -15 -35 -89 -14 -36 10 -66
18 -67 16 -1 -1 -5 -16 -8 -33 l-7 -31 76 -22 c79 -23 99 -41 73 -68 -14 -13
-27 -11 -117 17 -56 17 -105 38 -107 45 -3 8 1 36 9 62 9 26 27 88 42 137 l26
88 37 -5 c20 -2 70 -15 110 -27z m271 -105 c81 -40 111 -74 111 -122 0 -41
-54 -103 -90 -103 -19 0 -21 -3 -14 -32 15 -65 11 -83 -18 -86 -25 -3 -28 1
-42 49 -9 29 -16 60 -16 69 0 14 -37 40 -55 40 -3 0 -14 -18 -25 -41 -16 -31
-26 -40 -43 -37 -14 2 -23 11 -25 25 -5 32 112 273 133 273 8 0 46 -16 84 -35z
m-1701 2 c36 -39 46 -81 28 -118 -9 -18 -15 -33 -14 -34 2 -2 22 -12 46 -24
34 -17 43 -27 40 -44 -4 -32 -34 -33 -97 -2 -47 22 -61 25 -84 16 -27 -11 -27
-11 -12 -42 21 -40 16 -73 -12 -77 -27 -4 -36 11 -99 151 -36 82 -45 112 -38
125 16 24 133 71 180 72 30 0 46 -6 62 -23z m-273 -260 c71 -44 101 -69 103
-85 5 -31 -22 -38 -67 -17 l-39 17 -53 -36 c-53 -35 -54 -38 -54 -84 0 -41 -3
-47 -22 -50 -30 -4 -35 10 -64 182 l-23 138 23 19 c22 18 24 18 59 -1 21 -10
82 -48 137 -83z m2330 54 c52 -35 85 -92 66 -115 -21 -25 -40 -19 -63 19 -21
37 -63 65 -95 65 -36 0 -82 -38 -93 -77 -15 -50 -1 -86 42 -113 38 -23 56 -22
72 2 9 14 6 21 -12 34 -26 18 -27 57 -2 62 21 4 100 -56 100 -77 0 -21 -45
-88 -68 -100 -11 -6 -35 -6 -66 1 -63 13 -131 76 -141 131 -15 80 34 165 110
192 51 18 99 10 150 -24z m193 -157 c5 -9 4 -44 -4 -87 -6 -40 -11 -74 -9 -75
2 -2 27 1 55 7 75 16 117 14 124 -6 11 -29 -19 -45 -110 -60 -79 -12 -91 -17
-130 -53 -48 -44 -45 -43 -68 -34 -26 10 -18 46 19 84 30 31 36 45 45 115 6
44 15 90 20 103 11 26 45 29 58 6z m-2839 -29 c70 -36 104 -113 81 -187 -15
-52 -104 -148 -136 -148 -16 0 -49 28 -111 95 -48 53 -91 102 -95 110 -11 18
42 79 101 117 51 32 114 37 160 13z m2085 -79 c48 -20 76 -61 76 -110 0 -42
-24 -88 -435 -841 l-82 -150 321 -5 c254 -4 325 -8 342 -19 34 -23 54 -65 54
-115 0 -52 -6 -59 -239 -301 -64 -66 -251 -262 -416 -435 -165 -173 -356 -373
-425 -445 -69 -71 -217 -227 -330 -345 -269 -282 -264 -278 -307 -286 -68 -13
-144 49 -146 117 0 21 31 114 80 239 45 113 147 372 228 575 80 204 157 396
170 428 14 32 25 60 25 63 0 2 -135 4 -300 4 -334 0 -354 3 -390 62 -40 66
-50 41 213 523 459 844 541 991 556 1009 38 44 53 45 524 46 358 0 454 -3 481
-14z m-1786 -2937 c115 -56 136 -184 43 -262 -36 -30 -62 -36 -179 -45 l-87
-7 73 -53 c56 -41 72 -58 72 -77 0 -17 -8 -29 -24 -37 -22 -9 -33 -5 -93 38
-151 106 -183 134 -183 159 0 40 34 52 160 60 63 4 132 11 153 16 75 19 88 97
22 125 -20 8 -46 12 -59 8 -37 -9 -66 12 -66 47 0 21 6 32 23 39 39 15 99 11
145 -11z m2274 1 c32 -25 52 -71 46 -109 -4 -27 -2 -29 35 -34 27 -4 51 -16
71 -36 27 -27 31 -38 31 -84 0 -43 -5 -61 -28 -91 -84 -110 -243 -130 -292
-36 -17 33 -19 73 -6 99 8 15 3 19 -34 29 -72 19 -106 102 -71 170 18 34 62
76 101 96 43 23 116 21 147 -4z m-528 -243 c12 -9 17 -23 14 -42 -3 -26 -10
-31 -89 -57 l-87 -29 10 -39 10 -39 30 15 c48 25 118 28 158 7 50 -26 83 -93
77 -156 -8 -95 -85 -152 -203 -152 -77 0 -104 13 -104 49 0 43 15 51 87 48 58
-3 73 0 96 18 50 39 26 110 -37 110 -17 0 -48 -9 -69 -20 -78 -42 -106 -20
-138 107 -29 114 -31 112 112 157 126 41 112 39 133 23z m-1173 -42 c77 -39
101 -89 58 -119 -24 -16 -44 -12 -74 15 -36 32 -72 40 -110 25 -29 -12 -55
-41 -55 -60 0 -3 19 -6 42 -6 55 0 125 -35 149 -74 44 -72 11 -179 -69 -217
-80 -39 -198 -5 -245 71 -60 96 12 312 124 369 51 26 124 24 180 -4z m647 -87
c24 -24 12 -54 -48 -113 l-59 -59 42 -18 c23 -11 50 -29 59 -41 23 -29 24
-119 1 -157 -43 -73 -171 -94 -264 -44 -53 29 -66 52 -49 84 14 26 50 26 92 0
36 -22 88 -26 119 -10 13 8 19 21 19 46 0 31 -4 37 -35 50 -19 7 -47 14 -63
14 -31 0 -52 16 -52 38 0 8 25 43 55 78 l56 63 -88 3 c-83 3 -88 4 -91 26 -7
50 -3 52 151 52 98 0 147 -4 155 -12z"/>
<path d="M3348 4420 l-17 -40 41 -21 c49 -25 85 -19 94 16 3 13 3 29 -1 35 -7
11 -79 50 -92 50 -4 0 -16 -18 -25 -40z"/>
<path d="M1603 4450 c-24 -10 -43 -21 -43 -24 0 -14 35 -76 42 -76 20 0 86 40
92 56 7 19 -18 64 -37 64 -6 0 -31 -9 -54 -20z"/>
<path d="M1310 4249 c0 -36 14 -89 22 -89 6 0 23 10 40 21 32 23 35 19 -34 64
-22 13 -28 14 -28 4z"/>
<path d="M990 4032 l-34 -29 21 -29 c12 -16 42 -49 68 -74 l46 -45 35 37 c45
50 47 97 5 139 -40 40 -93 40 -141 1z"/>
<path d="M2327 3893 c-26 -43 -704 -1290 -715 -1315 -2 -5 124 -8 280 -8 162
0 299 -4 320 -10 20 -6 48 -24 62 -41 50 -59 48 -68 -79 -389 -65 -162 -168
-425 -231 -584 -63 -159 -113 -291 -111 -293 3 -2 143 142 313 319 170 178
363 379 429 448 66 69 214 224 330 345 115 121 249 261 297 311 49 50 85 94
81 97 -3 4 -144 7 -312 7 -335 0 -335 0 -366 60 -32 62 -28 72 244 570 142
261 256 478 254 483 -2 4 -181 7 -398 7 -217 0 -396 -3 -398 -7z"/>
<path d="M3576 1009 c-28 -22 -35 -66 -14 -87 20 -20 67 -14 93 13 29 28 31
42 9 73 -19 28 -53 28 -88 1z"/>
<path d="M3703 860 c-86 -52 -54 -148 38 -110 56 23 77 81 41 113 -24 22 -40
21 -79 -3z"/>
<path d="M1830 592 c-63 -20 -68 -97 -9 -127 40 -21 72 -18 97 8 27 28 28 58
5 86 -19 23 -69 41 -93 33z"/>
<path d="M1 1183 l-1 -1183 1178 1 c677 1 1141 5 1092 10 -924 88 -1724 679
-2080 1534 -89 215 -159 497 -179 725 -5 58 -9 -370 -10 -1087z"/>
<path d="M4990 2308 c0 -29 -7 -98 -15 -153 -87 -617 -396 -1173 -870 -1569
-397 -331 -853 -521 -1380 -575 -46 -5 417 -9 1098 -10 l1177 -1 0 1180 c0
649 -2 1180 -5 1180 -3 0 -5 -24 -5 -52z"/>
</g>
</svg>
